<?xml version="1.0" encoding="UTF-8" standalone="no"?>
<!-- Created with Inkscape (http://www.inkscape.org/) -->

<svg
   xmlns:dc="http://purl.org/dc/elements/1.1/"
   xmlns:cc="http://creativecommons.org/ns#"
   xmlns:rdf="http://www.w3.org/1999/02/22-rdf-syntax-ns#"
   xmlns:svg="http://www.w3.org/2000/svg"
   xmlns="http://www.w3.org/2000/svg"
   xmlns:xlink="http://www.w3.org/1999/xlink"
   version="1.1"
   width="740"
   height="180"
   id="svg2">
  <defs
     id="defs4">
    <linearGradient
       id="linearGradient4048">
      <stop
         id="stop4050"
         style="stop-color:#db0062;stop-opacity:1"
         offset="0" />
      <stop
         id="stop4070"
         style="stop-color:#d50168;stop-opacity:1"
         offset="0.1173" />
      <stop
         id="stop4068"
         style="stop-color:#d5005f;stop-opacity:1"
         offset="0.2366" />
      <stop
         id="stop4066"
         style="stop-color:#f3542d;stop-opacity:1"
         offset="0.3582" />
      <stop
         id="stop4064"
         style="stop-color:#e75e2a;stop-opacity:1"
         offset="0.4588" />
      <stop
         id="stop4062"
         style="stop-color:#60a025;stop-opacity:1"
         offset="0.5701" />
      <stop
         id="stop4060"
         style="stop-color:#29937f;stop-opacity:1"
         offset="0.6815" />
      <stop
         id="stop4058"
         style="stop-color:#007ac5;stop-opacity:1"
         offset="0.7897" />
      <stop
         id="stop4056"
         style="stop-color:#0154a0;stop-opacity:1"
         offset="0.8912" />
      <stop
         id="stop4052"
         style="stop-color:#013983;stop-opacity:1"
         offset="1" />
    </linearGradient>
    <linearGradient
       x1="42.98"
       y1="318"
       x2="525.3"
       y2="318"
       id="linearGradient4054"
       xlink:href="#linearGradient4048"
       gradientUnits="userSpaceOnUse"
       gradientTransform="matrix(1.614,0,0,1.614,-60.05,257.5)" />
    <linearGradient
       x1="42.98"
       y1="318"
       x2="525.3"
       y2="318"
       id="linearGradient3019"
       xlink:href="#linearGradient4048"
       gradientUnits="userSpaceOnUse"
       gradientTransform="matrix(1.614,0,0,1.614,-60.05,-294.5)" />
    <linearGradient
       x1="42.98"
       y1="318"
       x2="525.3"
       y2="318"
       id="linearGradient3064"
       xlink:href="#linearGradient4048"
       gradientUnits="userSpaceOnUse"
       gradientTransform="matrix(1.614,0,0,1.614,-60.05,-294.5)" />
    <linearGradient
       x1="42.98"
       y1="318"
       x2="525.3"
       y2="318"
       id="linearGradient3066"
       xlink:href="#linearGradient4048"
       gradientUnits="userSpaceOnUse"
       gradientTransform="matrix(1.614,0,0,1.614,-60.05,-294.5)" />
    <linearGradient
       x1="42.98"
       y1="318"
       x2="525.3"
       y2="318"
       id="linearGradient3068"
       xlink:href="#linearGradient4048"
       gradientUnits="userSpaceOnUse"
       gradientTransform="matrix(1.614,0,0,1.614,-60.05,-294.5)" />
    <linearGradient
       x1="42.98"
       y1="318"
       x2="525.3"
       y2="318"
       id="linearGradient3070"
       xlink:href="#linearGradient4048"
       gradientUnits="userSpaceOnUse"
       gradientTransform="matrix(1.614,0,0,1.614,-60.05,-294.5)" />
    <linearGradient
       x1="42.98"
       y1="318"
       x2="525.3"
       y2="318"
       id="linearGradient3072"
       xlink:href="#linearGradient4048"
       gradientUnits="userSpaceOnUse"
       gradientTransform="matrix(1.614,0,0,1.614,-60.05,-294.5)" />
    <linearGradient
       x1="42.98"
       y1="318"
       x2="525.3"
       y2="318"
       id="linearGradient3074"
       xlink:href="#linearGradient4048"
       gradientUnits="userSpaceOnUse"
       gradientTransform="matrix(1.614,0,0,1.614,-60.05,-294.5)" />
    <linearGradient
       x1="42.98"
       y1="318"
       x2="525.3"
       y2="318"
       id="linearGradient3076"
       xlink:href="#linearGradient4048"
       gradientUnits="userSpaceOnUse"
       gradientTransform="matrix(1.614,0,0,1.614,-60.05,-294.5)" />
    <linearGradient
       x1="42.98"
       y1="318"
       x2="525.3"
       y2="318"
       id="linearGradient3078"
       xlink:href="#linearGradient4048"
       gradientUnits="userSpaceOnUse"
       gradientTransform="matrix(1.614,0,0,1.614,-60.05,-294.5)" />
    <linearGradient
       x1="42.98"
       y1="318"
       x2="525.3"
       y2="318"
       id="linearGradient3080"
       xlink:href="#linearGradient4048"
       gradientUnits="userSpaceOnUse"
       gradientTransform="matrix(1.614,0,0,1.614,-60.05,-294.5)" />
  </defs>
  <metadata
     id="metadata7">
    <rdf:RDF>
      <cc:Work
         rdf:about="">
        <dc:format>image/svg+xml</dc:format>
        <dc:type
           rdf:resource="http://purl.org/dc/dcmitype/StillImage" />
        <dc:title></dc:title>
      </cc:Work>
    </rdf:RDF>
  </metadata>
  <g
     transform="translate(-30.69,-23.2)"
     id="g3053">
    <path
       d="m 439.2,25.5 c -30.5,136.3 -1,153.3 12.9,160 -11.6,-41.4 15.8,-96.9 -12.9,-160 z"
       id="path3045"
       style="fill:url(#linearGradient3064);fill-opacity:1;stroke:none" />
    <path
       d="M 639.5,25.5 C 607.2,49 597,78.6 598.1,101.1 c 7.6,-13 22.8,-30.6 28.6,-35 6.1,-4.7 10.5,-9.7 12.8,-15.9 1.4,-4.1 0.6,-8.4 -0.5,-13.1 -1.2,-4.1 0,-7.9 0.5,-11.6 z"
       id="path3043"
       style="fill:url(#linearGradient3066);fill-opacity:1;stroke:none" />
    <path
       d="m 201.5,97.1 c -10.3,0 -16.9,5.2 -21,21.6 -0.6,2.6 -3.2,3.7 -3.2,0.7 l 0,-2.1 c 0,-5.8 -3.4,-7.4 -5.2,0.5 -1.4,6.3 -2.2,13.7 -2.2,20 0.1,12.6 1,22.4 9.2,30 4,3.9 6.8,2.7 6.3,-2.4 -0.5,-5.5 -2.3,-10.2 -2.3,-16.2 0,-5 5.2,-39.3 17.6,-39.3 20.3,0 21.6,82.3 49.1,82.3 C 251,177 246.9,97.1 201.5,97.1 z"
       id="path3039"
       style="fill:url(#linearGradient3068);fill-opacity:1;stroke:none" />
    <path
       d="m 474.5,98.4 c -6.7,12.9 -11.3,26.8 -11.3,40.7 0,20.3 13.8,40.8 22.8,40.8 11.1,0 22.4,-41.6 22.4,-60.4 0,-5.9 -0.3,-11.3 -1.3,-15.5 -0.6,-2.4 -2.2,-4.3 -5.1,0.5 -7.4,14.1 -14.4,28.4 -20.5,43.6 -7.4,-1.1 1.6,-38.2 -7,-49.7 z"
       id="path3037"
       style="fill:url(#linearGradient3070);fill-opacity:1;stroke:none" />
    <path
       d="m 98.35,98.9 c 4.45,9.2 8.75,17.6 13.15,25.5 -6.3,0.1 -13.78,0.1 -23.99,0.1 l -0.17,0 -0.19,0 c 4.03,-8.5 7.78,-17.1 11.2,-25.6 z M 68.19,25.5 C 75.9,46.9 83.5,66 91.02,83.1 82.86,97.1 76.1,111 70.26,124.4 c -16.27,-0.2 -24.13,-0.8 -38.38,-2.1 8.91,8 20.24,12.9 32.82,15.5 -8.87,22.2 -15.65,43.5 -22.73,63.1 12.68,-17.8 25.83,-38.8 37.52,-61 2.59,0.1 5.21,0.1 7.85,0.1 l 0.17,0 c 10.73,0 21.09,-1.3 30.59,-4.2 26.5,43.6 51.8,61.8 76,62.8 C 144.4,156.2 144.1,57.1 68.19,25.5 z"
       id="path3035"
       style="fill:url(#linearGradient3072);fill-opacity:1;stroke:none" />
    <path
       d="m 555.2,101.1 c -24.5,0 -37.9,24.6 -37.9,47.8 0,13.9 3.4,28.4 17.3,28.4 20.5,0 38.2,-31.8 53.2,-50.2 2,-2.4 4.5,-0.6 6,2.4 3.1,6 12.9,45.7 27.4,46.7 1.2,0 4.7,-1.6 3.2,-4.2 -4.8,-8.6 -8,-57.9 -37.7,-57.9 -19.5,0 -37.4,42.1 -49.1,42.1 -3.7,0 -4.3,-2.9 -4.3,-7.3 0,-29.8 17.6,-41.6 34.3,-44.4 -3.5,-2.4 -7.2,-3.4 -12.4,-3.4 z"
       id="path3033"
       style="fill:url(#linearGradient3074);fill-opacity:1;stroke:none" />
    <path
       d="m 672.1,122.4 c 1.7,3.3 1.4,6 1.4,8.9 0,11.8 -13.9,28.3 -20.8,28.3 -4.4,0 -4.7,-2.9 -4.7,-5.5 0,-6.8 11.3,-24.4 24.1,-31.7 z m 21.6,-20.8 c -23.6,6.5 -66.8,43.8 -66.8,57 0,8.2 6.7,10.8 19.8,10.8 22.1,0 29.2,-7.4 36.2,-13.7 1.9,17.4 53.5,40.6 86.6,40.6 -5.5,-3.5 -11.8,-6.6 -14.8,-11.7 -28.1,-7.9 -48.4,-35.5 -61,-83 z"
       id="path3027"
       style="fill:url(#linearGradient3076);fill-opacity:1;stroke:none" />
    <path
       d="m 375,124.1 c 1.8,2.9 1.9,5.6 1.9,8.3 0,10.5 -12.4,28.4 -21.3,28.4 -3.1,0 -4.7,-0.8 -4.7,-4.6 0,-7.5 12.9,-26.5 24.1,-32.1 z m 21.3,-20.2 c -25.4,8.1 -66.5,43.2 -66.5,56.1 0,8.8 7.7,10.9 20.3,10.9 20.7,0 30.5,-8.4 35.9,-14.7 4,16.6 28.7,31 45.8,31 4.7,0 8.5,-1 9.5,-4.9 -26.6,-7.1 -44.5,-43.2 -45,-78.4 z"
       id="path3025"
       style="fill:url(#linearGradient3078);fill-opacity:1;stroke:none" />
    <path
       d="m 294.9,124.7 c 1,1.8 2.1,3.4 2.1,7.4 0,11 -11.7,27.8 -20.5,27.8 -3.7,0 -4.6,-1.3 -4.6,-4.1 0,-7.2 12.2,-26.1 23,-31.1 z m -4.8,-97.9 c -4.2,23.2 -1.8,58 3.4,87.1 -17.8,12.6 -43.6,34.4 -43.6,45.8 0,5.5 4.5,12.1 20.2,12.1 16.1,0 31,-7.6 36.6,-14.7 6.3,16.3 16.8,22.8 26,22.8 C 309.6,137.8 327.1,64.2 290.1,26.8 z"
       id="path3023"
       style="fill:url(#linearGradient3080);fill-opacity:1;stroke:none" />
  </g>
</svg>
